<svg preserveAspectRatio="xMidYMid meet" data-bbox="31.609 162.21 319.287 50.58" height="500" viewBox="31.609 162.21 319.287 50.58" width="500" xmlns="http://www.w3.org/2000/svg" data-type="color" role="presentation" aria-hidden="true" aria-label="">
    <g>
        <defs>
            <clipPath id="27bab1e2-c31a-41a6-839c-2cf6a547747c_comp-kbgakxea_r_comp-liu7a4zw">
                <path d="M31.61 162.21h133.64v50.58H31.61Zm0 0"></path>
            </clipPath>
        </defs>
        <g clip-path="url(#27bab1e2-c31a-41a6-839c-2cf6a547747c_comp-kbgakxea_r_comp-liu7a4zw)">
            <path d="M31.61 162.21h133.558v50.58H31.609Zm0 0" fill="#1c2120" data-color="1"></path>
        </g>
        <path d="m65.999 196.793-1.672-3.047h-12l-1.672 3.047h-3.328l9.359-16.969-.062-.078h3.406l-.032.078 9.329 16.969Zm-12.11-5.89h8.875l-4.437-8.063Zm0 0" fill="#ffffff" data-color="2"></path>
        <path d="M98.62 179.746v17.047h-2.89v-13.5l-8.282 13.438.032.062h-3.485l.047-.062-8.156-13.375v13.437h-2.89v-17.047h4.109l8.64 14.203 8.766-14.203Zm0 0" fill="#ffffff" data-color="2"></path>
        <path d="M125.847 184.715q0 1.846-.75 2.797c-.492.636-1.14 1.086-1.953 1.344q1.247.69 1.797 1.78.562 1.097.562 2.438v2.016q0 .457.047.89.048.425.094.813h-3.328a16 16 0 0 1-.078-.797 10 10 0 0 1-.031-.797v-1.906c0-.445-.04-.906-.11-1.375q-.11-.715-.719-1.219-.596-.499-2.046-.5h-10.563v6.594h-3.094v-17.047h14.86c1.664 0 2.968.399 3.906 1.188q1.406 1.17 1.406 3.468Zm-17.078 2.437h11.766q1.219.001 1.78-.718.577-.716.579-1.72v-.312q0-.419-.187-.828-.188-.421-.704-.703c-.336-.195-.824-.297-1.468-.297h-11.766Zm0 0" fill="#ffffff" data-color="2"></path>
        <path d="M151.677 184.715q0 1.846-.75 2.797c-.492.636-1.14 1.086-1.953 1.344q1.247.69 1.797 1.78.562 1.097.562 2.438v2.016q0 .457.047.89.047.425.094.813h-3.328a16 16 0 0 1-.078-.797 10 10 0 0 1-.032-.797v-1.906c0-.445-.039-.906-.109-1.375q-.11-.715-.719-1.219-.595-.499-2.047-.5H134.6v6.594h-3.094v-17.047h14.86c1.664 0 2.968.399 3.906 1.188q1.406 1.17 1.406 3.468Zm-17.078 2.437h11.766q1.219.001 1.78-.718.577-.716.579-1.72v-.312q0-.419-.187-.828-.189-.421-.704-.703c-.336-.195-.824-.297-1.468-.297h-11.766Zm0 0" fill="#ffffff" data-color="2"></path>
        <path d="M191.796 179.481v2.969h-8.875v15.25h-3.094v-15.25h-8.875v-2.969Zm0 0" fill="#1c2120" data-color="1"></path>
        <path d="M203.929 197.997q-3.798.001-6.032-1-2.221-.996-3.171-2.672a7.3 7.3 0 0 1-.938-3.64v-1.126c0-1.007.164-1.957.5-2.843q.498-1.342 1.688-2.344 1.184-1.012 3.218-1.563 2.03-.562 5.078-.562c2.895 0 5.164.383 6.813 1.14q2.484 1.126 2.484 3.407v.39q0 1.19-.656 2.016-.657.813-1.719 1.328-1.064.517-2.312.813a18 18 0 0 1-2.469.39q-1.235.11-2.172.11-.831.002-2.172-.079a80 80 0 0 1-2.734-.203 65 65 0 0 1-2.516-.297q.187 1.94 1.938 3.032 1.747 1.094 5.172 1.093 2.436.001 3.859-.39 1.436-.388 2.094-1.11.67-.715.86-1.625h3.093c-.024 1.055-.39 2.012-1.11 2.875-.718.856-1.804 1.547-3.25 2.079q-2.172.78-5.546.78m.343-8.922c1.438 0 2.57-.05 3.407-.156.843-.114 1.46-.27 1.859-.469q.593-.31.75-.703.17-.404.172-.86v-.03c0-.364-.149-.688-.438-.97q-.44-.42-1.765-.671-1.312-.265-3.985-.266-2.861.002-4.468.484-1.61.487-2.266 1.313-.656.815-.656 1.812 1.183.159 2.625.282 1.452.112 2.734.171 1.294.064 2.031.063m0 0" fill="#1c2120" data-color="1"></path>
        <path d="M238.922 191.778c-.211 2.024-1.215 3.563-3.016 4.625q-2.707 1.594-7.375 1.594-5.05.002-7.75-1.813c-1.805-1.218-2.703-3.05-2.703-5.5v-1.125c0-2.406.898-4.222 2.703-5.453q2.7-1.858 7.75-1.86 4.512 0 7.172 1.36 2.67 1.36 3.156 4.25h-3.11q-.456-1.67-2.25-2.281c-1.187-.414-2.843-.625-4.968-.625q-3.644 0-5.5 1.031-1.861 1.034-1.86 3.578v1.125q0 2.55 1.829 3.563c1.219.68 3.062 1.015 5.531 1.015q3.218 0 5.094-.796 1.888-.811 2.187-2.688Zm0 0" fill="#1c2120" data-color="1"></path>
        <path d="M256.345 182.247c1.938 0 3.617.265 5.047.797q2.155.782 3.313 2.468 1.17 1.676 1.171 4.375v7.813h-3.093v-7.172c0-1.351-.29-2.437-.86-3.25-.562-.82-1.336-1.414-2.312-1.781q-1.453-.546-3.328-.547c-1.293 0-2.485.227-3.578.672a9.4 9.4 0 0 0-2.844 1.75c-.805.73-1.422 1.531-1.86 2.406q-.656 1.301-.656 2.578v5.344h-3.031v-20.047h3.031v8.875q1.499-2.044 3.875-3.156 2.39-1.125 5.125-1.125m0 0" fill="#1c2120" data-color="1"></path>
        <path d="M290.083 185.372c0-.79-.336-1.414-1-1.875q-.986-.686-2.703-.969-1.704-.28-3.86-.281c-1.437 0-2.773.07-4 .203q-1.844.189-2.968.64c-.743.305-1.11.7-1.11 1.188v.266q-.001.281.125.593c.094.2.367.403.828.61q.685.315 2.25.61 1.56.28 4.391.562c2.3.199 4.266.453 5.89.765 1.633.305 2.883.797 3.75 1.485q1.313 1.03 1.313 3.093v.297q0 3.017-2.703 4.235-2.706 1.204-8.406 1.203-5.345.002-8-1.766c-1.774-1.187-2.656-2.789-2.656-4.812h3.093q0 1.642 1.844 2.593 1.858.955 5.719.954 1.278 0 2.656-.063a19 19 0 0 0 2.578-.281q1.2-.234 1.938-.703.75-.47.75-1.266v-.36q-.002-.185-.157-.452-.14-.282-.843-.61-.704-.327-2.344-.64-1.643-.329-4.61-.61c-2.43-.258-4.421-.539-5.984-.844q-2.345-.451-3.484-1.484-1.141-1.044-1.14-3.078v-.234c0-1.688.91-2.961 2.733-3.829 1.82-.875 4.672-1.312 8.547-1.312 2.188 0 4.07.2 5.657.594q2.388.596 3.687 1.953 1.313 1.346 1.313 3.625Zm0 0" fill="#1c2120" data-color="1"></path>
        <path d="M308.174 197.997q-5.05 0-7.75-1.828c-1.805-1.227-2.703-3.078-2.703-5.547v-1c0-2.55.898-4.414 2.703-5.594q2.7-1.78 7.75-1.781c3.363 0 5.945.586 7.75 1.75q2.702 1.734 2.703 5.531v.969q0 3.704-2.703 5.61-2.707 1.89-7.75 1.89m0-2.781c2.508 0 4.36-.344 5.547-1.032 1.195-.695 1.797-1.925 1.797-3.687v-.969q-.001-1.763-.781-2.734-.768-.967-2.391-1.36-1.63-.406-4.172-.406c-2.43 0-4.262.336-5.5 1q-1.862.986-1.86 3.594v1q0 2.58 1.829 3.594 1.828 1.001 5.531 1m0 0" fill="#1c2120" data-color="1"></path>
        <path d="M323.987 197.7v-20.047h3.031V197.7Zm0 0" fill="#1c2120" data-color="1"></path>
        <path d="M350.896 187.7h-3.094v-.594q-.001-.984-1.375-1.687-1.36-.717-4.484-.719c-2.211 0-3.828.14-4.86.422q-1.533.422-1.531 1.312v.094q-.002.3.172.594c.113.187.363.367.75.531q.576.236 1.797.484 1.23.237 3.328.485 2.858.329 4.89.781 2.028.44 3.141 1.297 1.109.862 1.11 2.469-.034 2.5-2.516 3.672-2.486 1.158-6.828 1.156c-2.844 0-5.055-.43-6.625-1.297q-2.344-1.311-2.344-3.953v-.672h3.094v.672c0 .855.46 1.523 1.39 2 .938.469 2.43.703 4.485.703q6.248.001 6.25-1.844v-.156a.87.87 0 0 0-.188-.531q-.174-.265-.781-.5-.61-.248-1.906-.485-1.284-.248-3.469-.484-2.737-.342-4.719-.812-1.97-.47-3.031-1.407-1.065-.95-1.094-2.625.06-2.233 2.547-3.312 2.496-1.078 6.938-1.078 4.276.002 6.609 1.234 2.344 1.219 2.344 3.656Zm-18.438-1.031v-.14zm18.281 6.468v.063zm0 0" fill="#1c2120" data-color="1"></path>
    </g>
</svg>